Patient4_TMGait_0pt2_03_right_22_GRF.mot
version=1
nRows=71
nColumns=19
inDegrees=no
endheader
time	F1x	F1y	F1z	M1x	M1y	M1z	F2x	F2y	F2z	M2x	M2y	M2z	EC1x	EC1y	EC1z	EC2x	EC2y	EC2z
47.06	-9.6069	783.0285	64.8681	-266.0118	-73.7832	876.7247	0.34442	76.8506	-4.4791	25.6928	4.7495	76.7716	-0.0592	0.0182	-0.0073	-0.0462	0.0165	0.9585
47.0809	-9.651	808.5403	68.7186	-274.7872	-77.2351	901.7894	0.32933	65.0003	-3.8677	21.7258	4.166	65.0363	-0.0592	0.0182	-0.0073	-0.0462	0.0165	0.9585
47.1019	-9.477	835.1663	72.613	-283.9597	-80.5629	927.6971	0.070593	52.0599	-3.1238	17.406	3.4944	52.2028	-0.0592	0.0182	-0.0073	-0.0462	0.0165	0.9585
47.1228	-9.0916	859.4596	76.0284	-292.38	-83.2297	950.7962	-0.30894	39.2848	-2.329	13.1522	2.7843	39.5171	-0.0592	0.0182	-0.0073	-0.0462	0.0165	0.9585
47.1437	-8.5021	877.9671	78.4974	-298.8987	-84.7582	967.3869	-0.63823	27.776	-1.5902	9.3293	2.0984	28.0804	-0.0592	0.0182	-0.0073	-0.0462	0.0165	0.9585
47.1646	-7.6555	887.7797	79.7009	-302.5424	-84.8145	974.3334	-0.78999	18.283	-0.9963	6.1833	1.4939	18.643	-0.0592	0.0182	-0.0073	-0.0462	0.0165	0.9585
47.1856	-6.44	886.9306	79.5206	-302.6398	-83.2675	969.5133	-0.77824	11.1224	-0.57559	3.8148	1.0098	11.5189	-0.0592	0.0182	-0.0073	-0.0462	0.0165	0.9585
47.2065	-4.728	874.7385	78.0424	-298.9365	-80.2032	952.2079	-0.67991	6.157	-0.3067	2.1736	0.65485	6.5678	-0.0592	0.0182	-0.0073	-0.0462	0.0165	0.9585
47.2274	-2.419	852.0958	75.5013	-291.7028	-75.8733	923.4176	-0.54526	2.9465	-0.15345	1.1091	0.40978	3.3412	-0.0592	0.0182	-0.0073	-0.0462	0.0165	0.9585
47.2484	0.51778	821.45	72.225	-281.7383	-70.6421	885.8361	-0.40024	0.92867	-0.075275	0.43019	0.24019	1.2629	-0.0592	0.0182	-0.0073	-0.0462	0.0165	0.9585
47.2693	4.027	786.506	68.568	-270.2811	-64.9151	843.5049	-0.25491	-0.45728	-0.034018	-0.054203	0.10819	-0.23637	-0.0592	0.0182	-0.0073	-0.0462	0.0165	0.9585
47.2902	7.9816	751.653	64.8534	-258.8203	-59.0756	801.177	-0.10728	-1.6922	0.001104	-0.50872	-0.018366	-1.6441	-0.0592	0.0182	-0.0073	-0.0462	0.0165	0.9585
47.3111	12.2101	721.2429	61.3472	-248.851	-53.4509	763.5296	0.051767	-3.119	0.051993	-1.0511	-0.16189	-3.3081	-0.0592	0.0182	-0.0073	-0.0462	0.0165	0.9585
47.3321	16.529	698.8821	58.2569	-241.6263	-48.3035	734.4158	0.2297	-4.8989	0.13082	-1.7343	-0.33262	-5.3836	-0.0592	0.0182	-0.0073	-0.0462	0.0165	0.9585
47.353	20.7716	686.7712	55.7436	-237.9136	-43.8389	716.1781	0.4283	-6.9552	0.23397	-2.5247	-0.52512	-7.7648	-0.0592	0.0182	-0.0073	-0.0462	0.0165	0.9585
47.3739	24.7746	685.1901	53.9396	-237.8086	-40.2336	709.1352	0.63954	-8.907	0.33932	-3.2779	-0.71481	-10.0071	-0.0592	0.0182	-0.0073	-0.0462	0.0165	0.9585
47.3949	28.3934	692.3364	52.9424	-240.6749	-37.6276	711.4407	0.83496	-9.9971	0.4121	-3.7127	-0.84876	-11.2408	-0.0592	0.0182	-0.0073	-0.0462	0.0165	0.9585
47.4158	31.5521	704.7073	52.7794	-245.2768	-36.0765	719.5004	0.96037	-9.028	0.40091	-3.3863	-0.8378	-10.1018	-0.0592	0.0182	-0.0073	-0.0462	0.0165	0.9585
47.4367	34.2285	717.8183	53.387	-250.0326	-35.5324	728.7346	0.92999	-4.3253	0.23201	-1.6793	-0.55142	-4.6884	-0.0592	0.0182	-0.0073	-0.0462	0.0165	0.9585
47.4576	36.4045	726.9662	54.5881	-253.2869	-35.8356	734.3815	0.6215	6.214	-0.19117	2.1884	0.1785	7.3837	-0.0592	0.0182	-0.0073	-0.0462	0.0165	0.9585
47.4786	38.0323	727.9442	56.0981	-253.5661	-36.7266	732.2303	-0.11988	24.9356	-0.97997	9.0891	1.5444	28.7616	-0.0592	0.0182	-0.0073	-0.0462	0.0165	0.9585
47.4995	39.0187	717.5967	57.5473	-249.7781	-37.8737	719.1827	-1.4693	54.0247	-2.2422	19.8412	3.7375	61.888	-0.0592	0.0182	-0.0073	-0.0462	0.0165	0.9585
47.5204	39.2204	694.0783	58.5043	-241.3013	-38.8979	693.4968	-3.6027	94.8184	-4.056	34.9533	6.9041	108.2194	-0.0592	0.0182	-0.0073	-0.0462	0.0165	0.9585
47.5414	38.4637	656.9406	58.5112	-228.0119	-39.4049	654.8404	-6.7026	147.0322	-6.534	54.3187	11.2174	167.375	-0.0592	0.0182	-0.0073	-0.0462	0.0165	0.9585
47.5623	36.5982	607.2126	57.2031	-210.3054	-39.0846	604.3468	-10.7843	207.9403	-9.9399	76.8914	16.939	236.2428	-0.0592	0.0182	-0.0073	-0.0462	0.0165	0.9585
47.5832	33.5966	547.5973	54.4488	-189.1563	-37.8139	544.7548	-15.4294	272.3042	-14.3189	100.6833	23.8979	308.8858	-0.0592	0.0182	-0.0073	-0.0462	0.0165	0.9585
47.6041	29.6734	482.5812	50.4079	-166.1489	-35.6663	480.4621	-19.9378	334.9266	-19.2929	123.7391	31.3625	379.4039	-0.0592	0.0182	-0.0073	-0.0462	0.0165	0.9585
47.6251	25.2728	417.5831	45.4687	-143.1814	-32.8528	416.675	-23.6058	392.971	-24.2096	145.0023	38.338	444.5486	-0.0592	0.0182	-0.0073	-0.0462	0.0165	0.9585
47.646	20.923	357.4316	40.0763	-121.944	-29.6031	357.9485	-25.9656	445.144	-28.531	164.0005	44.0679	502.8268	-0.0592	0.0182	-0.0073	-0.0462	0.0165	0.9585
47.6669	17.08	305.3518	34.6277	-103.5667	-26.1193	307.2546	-26.8113	490.6957	-32.0238	180.4572	48.243	553.3897	-0.0592	0.0182	-0.0073	-0.0462	0.0165	0.9585
47.6879	14.0138	262.6869	29.4641	-88.5205	-22.6133	265.7654	-26.1642	529.0898	-34.6826	194.172	50.8988	595.6668	-0.0592	0.0182	-0.0073	-0.0462	0.0165	0.9585
47.7088	11.7914	229.1414	24.8434	-76.7063	-19.2917	233.1112	-24.2686	560.0343	-36.5593	205.0444	52.2201	629.4049	-0.0592	0.0182	-0.0073	-0.0462	0.0165	0.9585
47.7297	10.3347	203.3499	20.9048	-67.6523	-16.3045	207.9247	-21.5142	583.7406	-37.7004	213.1735	52.4315	654.9328	-0.0592	0.0182	-0.0073	-0.0462	0.0165	0.9585
47.7506	9.4887	183.437	17.6526	-60.7081	-13.7053	188.3678	-18.3268	601.0962	-38.1712	218.9193	51.7784	673.3274	-0.0592	0.0182	-0.0073	-0.0462	0.0165	0.9585
47.7716	9.0918	167.449	14.983	-55.1953	-11.455	172.5344	-15.1118	613.6223	-38.0677	222.878	50.5206	686.3537	-0.0592	0.0182	-0.0073	-0.0462	0.0165	0.9585
47.7925	8.9977	153.6464	12.7377	-50.508	-9.4593	158.7315	-12.2279	623.2366	-37.5236	225.7867	48.9357	696.1992	-0.0592	0.0182	-0.0073	-0.0462	0.0165	0.9585
47.8134	9.0817	140.6761	10.759	-46.1721	-7.6154	145.6464	-9.9599	631.928	-36.7224	228.3972	47.3259	705.1121	-0.0592	0.0182	-0.0073	-0.0462	0.0165	0.9585
47.8344	9.2324	127.6383	8.9257	-41.8655	-5.8514	132.4088	-8.4976	641.4492	-35.8748	231.3603	45.9832	715.0552	-0.0592	0.0182	-0.0073	-0.0462	0.0165	0.9585
47.8553	9.3481	114.0624	7.177	-37.4086	-4.1529	118.5637	-7.9275	653.0235	-35.1726	235.1184	45.1396	727.3852	-0.0592	0.0182	-0.0073	-0.0462	0.0165	0.9585
47.8762	9.3423	99.827	5.5259	-32.7427	-2.5697	103.9863	-8.2496	667.092	-34.7626	239.8133	44.942	742.5873	-0.0592	0.0182	-0.0073	-0.0462	0.0165	0.9585
47.8971	9.1438	85.0747	4.0414	-27.9026	-1.1967	88.8161	-9.3888	683.2854	-34.736	245.2761	45.4498	760.2555	-0.0592	0.0182	-0.0073	-0.0462	0.0165	0.9585
47.9181	8.6898	70.1344	2.8032	-22.9918	-0.13718	73.3832	-11.1976	700.6094	-35.1302	251.0996	46.6353	779.299	-0.0592	0.0182	-0.0073	-0.0462	0.0165	0.9585
47.939	7.9381	55.435	1.8551	-18.1546	0.54722	58.1299	-13.4836	717.7668	-35.9318	256.7595	48.4019	798.2932	-0.0592	0.0182	-0.0073	-0.0462	0.0165	0.9585
47.9599	6.8764	41.48	1.1871	-13.5646	0.86099	43.5871	-16.0371	733.5092	-37.0889	261.7496	50.6065	815.8626	-0.0592	0.0182	-0.0073	-0.0462	0.0165	0.9585
47.9809	5.5391	28.8591	0.74309	-9.4224	0.87212	30.3883	-18.6636	746.8617	-38.5235	265.674	53.0818	830.9202	-0.0592	0.0182	-0.0073	-0.0462	0.0165	0.9585
48.0018	4.0357	18.1784	0.45066	-5.9274	0.69043	19.1912	-21.1914	757.2358	-40.1307	268.3034	55.6404	842.7799	-0.0592	0.0182	-0.0073	-0.0462	0.0165	0.9585
48.0227	2.5499	9.8692	0.26004	-3.2155	0.42273	10.4707	-23.4594	764.5618	-41.7729	269.6358	58.0668	851.2727	-0.0592	0.0182	-0.0073	-0.0462	0.0165	0.9585
48.0436	1.2709	3.9903	0.145	-1.3008	0.14819	4.2985	-25.2895	769.4192	-43.2885	269.9505	60.1174	856.8874	-0.0592	0.0182	-0.0073	-0.0462	0.0165	0.9585
48.0646	0.28569	0.25191	0.085355	-0.085854	-0.089926	0.37502	-26.4761	773.0296	-44.5178	269.7931	61.5493	860.7813	-0.0592	0.0182	-0.0073	-0.0462	0.0165	0.9585
48.0855	-0.40211	-1.8012	0.064533	0.57903	-0.27619	-1.772	-26.8322	777.0087	-45.3527	269.8567	62.1942	864.5438	-0.0592	0.0182	-0.0073	-0.0462	0.0165	0.9585
48.1064	-0.83279	-2.6493	0.07037	0.85125	-0.41082	-2.6498	-26.2618	782.9149	-45.7532	270.7958	61.9946	869.7514	-0.0592	0.0182	-0.0073	-0.0462	0.0165	0.9585
48.1274	-1.0652	-2.7196	0.09274	0.87076	-0.50047	-2.7133	-24.7901	791.8117	-45.7019	273.0585	60.9616	877.5257	-0.0592	0.0182	-0.0073	-0.0462	0.0165	0.9585
48.1483	-1.1571	-2.3536	0.12289	0.74893	-0.55402	-2.3197	-22.5718	803.905	-45.1691	276.7526	59.1386	888.137	-0.0592	0.0182	-0.0073	-0.0462	0.0165	0.9585
48.1692	-1.1614	-1.7996	0.15393	0.56639	-0.58226	-1.7276	-19.8846	818.3177	-44.1382	281.5668	56.6242	900.7555	-0.0592	0.0182	-0.0073	-0.0462	0.0165	0.9585
48.1901	-1.1249	-1.2248	0.18393	0.37789	-0.59875	-1.118	-17.0821	833.1857	-42.6662	286.8078	53.6134	913.5342	-0.0592	0.0182	-0.0073	-0.0462	0.0165	0.9585
48.2111	-1.0831	-0.7383	0.21343	0.21951	-0.6143	-0.6116	-14.4908	846.1193	-40.8995	291.5729	50.3782	924.0762	-0.0592	0.0182	-0.0073	-0.0462	0.0165	0.9585
48.232	-1.058	-0.40821	0.24212	0.11532	-0.63361	-0.28139	-12.2975	854.908	-39.0167	295.0106	47.1721	930.1558	-0.0592	0.0182	-0.0073	-0.0462	0.0165	0.9585
48.2529	-1.0608	-0.281	0.26888	0.081312	-0.65674	-0.17566	-10.4967	858.0664	-37.1948	296.5288	44.1762	930.2811	-0.0592	0.0182	-0.0073	-0.0462	0.0165	0.9585
48.2739	-1.0911	-0.39341	0.28847	0.13098	-0.67699	-0.33576	-8.9371	855.0249	-35.5928	295.8707	41.5015	923.8851	-0.0592	0.0182	-0.0073	-0.0462	0.0165	0.9585
48.2948	-1.1404	-0.77918	0.29475	0.27657	-0.68516	-0.8013	-7.4238	846.0616	-34.3379	293.0964	39.2115	911.2688	-0.0592	0.0182	-0.0073	-0.0462	0.0165	0.9585
48.3157	-1.1909	-1.4632	0.28182	0.52553	-0.67266	-1.5991	-5.8053	832.1034	-33.5135	288.5134	37.3386	893.4112	-0.0592	0.0182	-0.0073	-0.0462	0.0165	0.9585
48.3366	-1.2176	-2.4432	0.24258	0.87543	-0.62865	-2.7283	-3.9982	814.5038	-33.1449	282.5978	35.8799	871.7352	-0.0592	0.0182	-0.0073	-0.0462	0.0165	0.9585
48.3576	-1.1866	-3.6661	0.16911	1.3059	-0.53637	-4.1342	-1.9696	794.8519	-33.1881	275.9228	34.7805	847.8953	-0.0592	0.0182	-0.0073	-0.0462	0.0165	0.9585
48.3785	-1.0536	-4.9912	0.052722	1.7673	-0.36956	-5.6651	0.29193	774.7968	-33.5504	269.0911	33.9417	823.5871	-0.0592	0.0182	-0.0073	-0.0462	0.0165	0.9585
48.3994	-0.76792	-6.1446	-0.11189	2.1634	-0.096621	-7.0127	2.7886	755.9007	-34.1203	262.676	33.2482	800.4034	-0.0592	0.0182	-0.0073	-0.0462	0.0165	0.9585
48.4204	-0.27706	-6.6758	-0.32329	2.3355	0.30618	-7.6592	5.517	739.501	-34.7958	257.1679	32.5974	779.6982	-0.0592	0.0182	-0.0073	-0.0462	0.0165	0.9585
48.4413	0.46288	-5.9199	-0.56496	2.0482	0.84059	-6.8382	8.4674	726.571	-35.5071	252.92	31.9213	762.4444	-0.0592	0.0182	-0.0073	-0.0462	0.0165	0.9585
48.4622	1.472	-2.982	-0.79866	0.9842	1.4724	-3.5199	11.6196	717.5618	-36.2184	250.0916	31.1889	749.0917	-0.0592	0.0182	-0.0073	-0.0462	0.0165	0.9585
48.4831	2.7167	3.2344	-0.9559	-1.2436	2.1119	3.5594	14.926	712.2888	-36.9121	248.6074	30.4007	739.4737	-0.0592	0.0182	-0.0073	-0.0462	0.0165	0.9585
48.5041	4.0771	13.9099	-0.92864	-5.0503	2.5907	15.7683	18.2738	709.887	-37.565	248.1448	29.5764	732.7761	-0.0592	0.0182	-0.0073	-0.0462	0.0165	0.9585
48.525	5.3017	30.0711	-0.56571	-10.7939	2.6392	34.3129	21.4571	708.8181	-38.1326	248.1388	28.7501	727.5607	-0.0592	0.0182	-0.0073	-0.0462	0.0165	0.9585
